<mxfile host="app.diagrams.net" modified="2023-09-15T01:28:42.910Z" agent="Mozilla/5.0 (Windows NT 10.0; Win64; x64) AppleWebKit/537.36 (KHTML, like Gecko) Chrome/116.0.0.0 Safari/537.36" version="21.3.7" etag="iArI0JhGQW8V1mY9nyxh" type="github">
  <diagram name="Page-1" id="sI6BjQgk9mS5D7Da1Uim">
    <mxGraphModel>
      <root>
        <mxCell id="0" />
        <mxCell id="1" parent="0" />
      </root>
    </mxGraphModel>
  </diagram>
</mxfile>
